<svg xmlns="http://www.w3.org/2000/svg" width="1600" height="1000" viewBox="0 0 1600 1000">
  <defs>
    <linearGradient id="bg" x1="0" x2="1" y1="0" y2="1">
      <stop offset="0%" stop-color="#fff7e6"/>
      <stop offset="55%" stop-color="#fffaf1"/>
      <stop offset="100%" stop-color="#eaf7ff"/>
    </linearGradient>
  </defs>
  <rect width="1600" height="1000" fill="url(#bg)"/>
  <circle cx="110" cy="105" r="52" fill="#ffd166"/>
  <circle cx="90" cy="92" r="6" fill="#6b3e26"/>
  <circle cx="130" cy="92" r="6" fill="#6b3e26"/>
  <path d="M86 120 Q110 142 134 120" fill="none" stroke="#6b3e26" stroke-width="5" stroke-linecap="round"/>
  <g opacity="0.85">
    <path d="M1130 110 Q1220 20 1310 110" fill="none" stroke="#ffadad" stroke-width="28"/>
    <path d="M1165 110 Q1220 55 1275 110" fill="none" stroke="#ffd166" stroke-width="28"/>
    <path d="M1198 110 Q1220 88 1242 110" fill="none" stroke="#9bf6ff" stroke-width="28"/>
    <ellipse cx="1085" cy="118" rx="58" ry="35" fill="#bde0fe"/>
    <ellipse cx="1145" cy="122" rx="70" ry="42" fill="#bde0fe"/>
    <ellipse cx="1325" cy="122" rx="70" ry="42" fill="#bde0fe"/>
  </g>
  <g opacity="0.86">
    <text x="55" y="845" font-size="120">🧸</text>
    <text x="145" y="905" font-size="90">🧱</text>
    <text x="40" y="935" font-size="90">🪀</text>
  </g>
  <g opacity="0.88">
    <text x="1275" y="870" font-size="125">👧</text>
    <text x="1378" y="880" font-size="125">👦</text>
    <text x="1480" y="900" font-size="90">⚽</text>
  </g>
  <g opacity="0.62">
    <text x="315" y="95" font-size="48">⭐</text>
    <text x="430" y="145" font-size="42">💛</text>
    <text x="770" y="80" font-size="50">🌟</text>
    <text x="1000" y="170" font-size="42">🎈</text>
    <text x="1220" y="245" font-size="42">🎵</text>
    <text x="280" y="880" font-size="42">💚</text>
    <text x="1180" y="925" font-size="42">⭐</text>
  </g>
</svg>